<svg width="32" height="32" xmlns="http://www.w3.org/2000/svg">

 <g>
  <title>background</title>
  <rect fill="none" id="canvas_background" height="402" width="582" y="-1" x="-1"/>
 </g>
 <g>
  <title>Layer 1</title>
  <rect stroke="null" id="svg_2" y="-0.344439" x="-0.819821" width="33.435907" height="33.435907"/>
  <polygon id="svg_3" points="37.95775854587555,5.292231798171997 50.99975872039795,5.292231798171997 37.95775854587555,18.01423192024231 " opacity="0.22" fill="#FFFFFF"/>
  <path stroke="null" id="Cat_2_" fill="#FFFFFF" d="m19.086789,26.811274l-2.939158,0l-2.941625,0c0,0 0.008634,-1.745241 0,-2.941625c-4.025771,0.86707 -5.149386,-2.206527 -5.149386,-2.206527c-0.735098,-1.471429 -1.471429,-2.206527 -1.471429,-2.206527c-1.471429,-0.873237 0,-0.735098 0,-0.735098c1.471429,0 2.206527,1.471429 2.206527,1.471429c1.291355,2.191727 3.587919,1.838978 4.413054,1.471429c0,-0.735098 0.321914,-1.847612 0.735098,-2.206527c-3.21297,-0.361382 -5.88695,-2.206527 -5.88695,-5.884484s0.738798,-4.413054 1.473896,-5.149386c-0.148006,-0.362615 -0.764699,-1.703306 0.022201,-3.677956c0,0 1.445528,0 2.916957,2.206527c0.728931,-0.728931 2.941625,-0.735098 3.677956,-0.735098c0.733865,0 2.947792,0.006167 3.676723,0.735098c1.471429,-2.206527 2.920658,-2.206527 2.920658,-2.206527c0.7869,1.974651 0.171441,3.315341 0.022201,3.677956c0.735098,0.735098 1.471429,1.471429 1.471429,5.149386s-2.67028,5.521868 -5.884484,5.884484c0.414418,0.358915 0.735098,1.624369 0.735098,2.206527l0.001233,5.146919l0,0z"/>
 </g>
</svg>