<svg xmlns="http://www.w3.org/2000/svg" xmlns:xlink="http://www.w3.org/1999/xlink" viewBox="0 0 518 400"><defs><style>.cls-1,.cls-2{fill:none;}.cls-2{clip-path:url(#clip-path);}.cls-3{clip-path:url(#clip-path-2);}</style><clipPath id="clip-path"><path class="cls-1" d="M235.63,110,153.46,252.3a14.28,14.28,0,0,0,12.37,21.42H330.17a14.28,14.28,0,0,0,12.37-21.42L260.37,110A14.29,14.29,0,0,0,235.63,110Z"/></clipPath><clipPath id="clip-path-2"><path class="cls-2" d="M330.17,274.22H165.83A14.78,14.78,0,0,1,153,252.05L235.2,109.73a14.78,14.78,0,0,1,25.6,0L343,252.05a14.78,14.78,0,0,1-12.8,22.17Zm-94.11-164L153.89,252.55a13.78,13.78,0,0,0,11.94,20.67H330.17a13.78,13.78,0,0,0,11.94-20.67L259.94,110.23a13.79,13.79,0,0,0-23.88,0Z"/></clipPath></defs><title>Asset 2</title><g id="Layer_2" data-name="Layer 2"><g id="Layer_1-2" data-name="Layer 1"><g class="cls-3"><rect width="518" height="400"/></g></g></g></svg>